<svg id="Layer_2" data-name="Layer 2" xmlns="http://www.w3.org/2000/svg" viewBox="0 0 1201 1201"><defs><style>.cls-1{fill:#fff;stroke:#fff;stroke-miterlimit:10;}</style></defs><title>geektastic-logo</title><path class="cls-1" d="M230.68,573.81H215.6c16,39.12-17.51,53.31-17.51,53.31-25.78,10.27-47.18,3.42-47.18,3.42-0.73,4.4,2.92,7.82,2.92,7.82l45.72,3.91c33.4,4.24,29.51,35.21,29.51,35.21,0,34.23-29.83,35.54-32.75,37.82-42.47,4.56-64.85,0-64.85,0-24.32-5.54-22.7-28-22.7-28,0-16.3,15.24-25.1,15.24-25.1a21.76,21.76,0,0,1-11.32-16.63,30.88,30.88,0,0,1,13.91-25.76C113.31,608,113.31,596,113.31,596c-3.57-27.06,9.4-39.78,9.4-39.78,24.32-23.15,57.71-11.74,57.71-11.74h50.26v29.34ZM166,568.43h-0.05c-0.56,0-7.72.29-7.48,7.58v24c-0.23,7.28,6.92,7.57,7.48,7.58H166c0.56,0,7.72-.29,7.48-7.58V576C173.71,568.72,166.56,568.44,166,568.43ZM152.86,686.29c1.46,8.56,20.62,6.11,20.62,6.11,7.73,0,10-7.09,10-7.09v-5.87c0-10.27-14.83-8.07-14.83-8.07-8,0-12.65-2.45-12.65-2.45A19.7,19.7,0,0,0,152.86,686.29Z"/><path class="cls-1" d="M296.58,598.26h-15V576c-0.23-7.28,6.92-7.57,7.48-7.58h0.05c0.56,0,7.72.29,7.48,7.58v22.25Zm-7.51-56.61s-56.2-4.28-53.77,63.45V619s1.22,52.33,49.61,52.33c0,0,31.13,2.2,48.63-5.87V632.74s-34.53,8.07-45.72,3.91c0,0-9.24-3.42-8-15.4h60.06S351.59,541.65,289.07,541.65Z"/><path class="cls-1" d="M410.87,598.26h-15V576c-0.23-7.28,6.92-7.57,7.48-7.58h0.05c0.56,0,7.72.29,7.48,7.58v22.25Zm-7.51-56.61s-56.2-4.28-53.77,63.45V619s1.22,52.33,49.61,52.33c0,0,31.13,2.2,48.63-5.87V632.74s-34.53,8.07-45.72,3.91c0,0-9.24-3.42-8-15.4h60.06S465.88,541.65,403.36,541.65Z"/><polygon class="cls-1" points="468.26 499.96 468.26 669.66 513.01 669.66 513.01 601.68 535.38 671.64 585.23 671.64 555.32 598.26 579.88 544.22 529.78 544.22 513.49 596.3 513.49 499.96 468.26 499.96"/><path class="cls-1" d="M582.55,544.46v28.61h15.32v69.44s-1.46,27.45,29.67,29.13c0,0,10,.95,38.18-3.7V635.67s-20.67,4.89-22.86-1.47V573.32h17.75l6.57-28.85H642.86V506.32l-39.39,10.27L596.9,544Z"/><path class="cls-1" d="M875.71,544.7l0.09,28.61,15.32-.05,0.23,69.44s-1.37,27.45,29.76,29c0,0,10,.92,38.17-3.82l-0.11-32.28s-20.65,5-22.86-1.39l-0.2-60.89,17.75-.06,6.47-28.88L936,544.5l-0.13-38.14-39.36,10.4-6.48,27.41Z"/><path class="cls-1" d="M722.62,576.5c-17-2.69-39.88,6.85-39.88,6.85V549.6c35.75-11.25,56.17-7.09,56.17-7.09,36.23,3.67,32.83,31.05,32.83,31.05v98.08H735l-5.84-10.54c-15.32,13.94-30.64,10.62-30.64,10.62-37.69-3.31-28.21-52.44-28.21-52.44C678.85,580.9,726.76,589,726.76,589,729.92,578.07,722.62,576.5,722.62,576.5Zm-9.24,51C714.11,645,720.55,644,720.55,644c7.66-.24,6.69-4.89,6.69-4.89V611C710.71,607.55,713.38,627.48,713.38,627.48Z"/><path class="cls-1" d="M867,549.13S836,529.67,799.86,551.8c0,0-13.11,6.89-14,29.14,0,0-4.06,23.49,21,36.61,0,0,20.7,8.49,20.72,14.36,0,0,2.94,7.57-10.92,7.13s-28.47-5.53-28.47-5.53l0.35,32.76s14.6,7.78,38.08,7.7c0,0,45.6.09,45.47-38.54,0,0,4.52-31.8-26.16-41.73,0,0-15.82-5.33-15.84-10.46,0,0-1.73-8.55,6.3-7.6,0,0,1.94-1.72,30.66,5.28Z"/><ellipse class="cls-1" cx="990.49" cy="506.54" rx="22.74" ry="22.87" transform="translate(-1.68 3.31) rotate(-0.19)"/><rect class="cls-1" x="968.08" y="543.83" width="45.48" height="125.44" transform="translate(-2 3.27) rotate(-0.19)"/><path class="cls-1" d="M1108.68,546.37s-39.21-18-65.62,11.47c0,0-15.26,18.63-13.95,47.48s1.36,43.28,19.65,58.13c0,0,21.94,16.55,60.33,5.42L1109,632s-23.8,10.59-30.64-.63c0,0-3.41-.48-4.24-30.8,0,0-1.29-22.49,12.32-23.76,0,0,7.53-2.47,22.39,4.33Z"/></svg>